<svg width="1282" height="211" viewBox="0 0 1282 211" fill="none" xmlns="http://www.w3.org/2000/svg">
<g clip-path="url(#clip0_60_17977)">
<path d="M259.6 167.294V46.6143H300.42C309.87 46.6143 317.59 48.3143 323.58 51.7143C329.63 55.1143 334.11 59.7043 337.02 65.4843C339.94 71.2643 341.39 77.7143 341.39 84.8443C341.39 91.9743 339.93 98.3743 337.02 104.204C334.16 110.034 329.7 114.684 323.66 118.134C317.67 121.534 309.97 123.234 300.58 123.234H271.42V110.274H300.09C306.57 110.274 311.78 109.164 315.72 106.954C319.66 104.744 322.52 101.714 324.31 97.8843C326.09 93.9943 326.98 89.6543 326.98 84.8443C326.98 80.0343 326.09 75.6643 324.31 71.8843C322.53 68.0543 319.64 65.0543 315.64 62.8943C311.7 60.6843 306.46 59.5743 299.93 59.5743H274.18V167.294H259.6ZM378.57 169.404C372.85 169.404 367.64 168.324 362.94 166.164C358.24 163.954 354.52 160.764 351.76 156.604C349.01 152.444 347.63 147.424 347.63 141.544C347.63 136.364 348.66 132.174 350.71 128.994C352.76 125.754 355.49 123.214 358.89 121.384C362.35 119.494 366.13 118.094 370.23 117.174C374.39 116.254 378.57 115.524 382.78 114.984C388.29 114.284 392.74 113.744 396.14 113.364C399.6 112.984 402.11 112.334 403.67 111.424C405.29 110.504 406.1 108.944 406.1 106.724V106.234C406.1 100.454 404.51 95.9743 401.32 92.7943C398.19 89.5542 393.41 87.9343 386.98 87.9343C380.55 87.9343 375.21 89.3943 371.43 92.3043C367.65 95.1643 365 98.2443 363.49 101.534L350.21 96.8343C352.59 91.3243 355.74 87.0343 359.69 83.9543C363.69 80.8743 368.01 78.7143 372.65 77.4743C377.35 76.2343 381.96 75.6143 386.5 75.6143C389.42 75.6143 392.76 75.9643 396.54 76.6643C400.32 77.3143 403.99 78.7143 407.55 80.8743C411.17 82.9843 414.14 86.1943 416.46 90.5143C418.84 94.7843 420.02 100.504 420.02 107.684V167.294H406.09V154.984H405.44C404.52 156.924 402.96 159.034 400.74 161.304C398.53 163.514 395.58 165.434 391.91 167.054C388.29 168.624 383.84 169.404 378.55 169.404H378.57ZM380.68 156.934C386.19 156.934 390.83 155.854 394.61 153.694C398.39 151.534 401.25 148.754 403.2 145.354C405.14 141.894 406.12 138.304 406.12 134.584V121.784C405.53 122.484 404.23 123.134 402.23 123.724C400.29 124.264 398.02 124.754 395.43 125.184C392.89 125.614 390.41 125.994 387.98 126.314C385.55 126.584 383.61 126.804 382.15 126.964C378.53 127.454 375.16 128.234 372.03 129.314C368.9 130.344 366.36 131.874 364.42 133.934C362.53 135.984 361.59 138.794 361.59 142.354C361.59 147.164 363.37 150.804 366.94 153.284C370.56 155.714 375.15 156.924 380.71 156.924L380.68 156.934ZM448.31 112.874V167.304H434.54V76.7543H447.82V91.0043H449.12C451.23 86.3643 454.44 82.6343 458.76 79.8243C463.08 77.0143 468.67 75.6143 475.52 75.6143C481.62 75.6143 486.97 76.8543 491.56 79.3443C496.15 81.8343 499.71 85.6043 502.25 90.6843C504.84 95.7043 506.14 102.074 506.14 109.794V167.294H492.37V110.764C492.37 103.694 490.5 98.1543 486.78 94.1643C483.05 90.1143 477.98 88.0943 471.55 88.0943C467.12 88.0943 463.16 89.0643 459.65 91.0143C456.14 92.9543 453.36 95.7643 451.31 99.4343C449.31 103.104 448.31 107.584 448.31 112.874ZM557.25 169.244C549.1 169.244 541.94 167.304 535.79 163.414C529.63 159.524 524.83 154.074 521.37 147.054C517.97 140.034 516.27 131.884 516.27 122.594C516.27 113.304 517.97 104.914 521.37 97.8943C524.82 90.8243 529.63 85.3443 535.79 81.4543C541.95 77.5643 549.1 75.6243 557.25 75.6243C565.4 75.6243 572.64 77.5643 578.79 81.4543C584.95 85.3443 589.75 90.8243 593.21 97.8943C596.67 104.914 598.4 113.144 598.4 122.594C598.4 132.044 596.67 140.034 593.21 147.054C589.76 154.074 584.95 159.524 578.79 163.414C572.63 167.304 565.45 169.244 557.25 169.244ZM557.25 156.764C563.51 156.764 568.64 155.174 572.64 151.984C576.64 148.794 579.61 144.614 581.55 139.434C583.5 134.194 584.47 128.584 584.47 122.584C584.47 116.584 583.5 110.814 581.55 105.574C579.61 100.334 576.64 96.1243 572.64 92.9443C568.65 89.7043 563.52 88.0843 557.25 88.0843C550.98 88.0843 546.02 89.7043 542.02 92.9443C538.03 96.1343 535.06 100.344 533.11 105.574C531.16 110.814 530.19 116.484 530.19 122.584C530.19 128.684 531.16 134.194 533.11 139.434C535.05 144.614 538.02 148.804 542.02 151.984C546.02 155.174 551.09 156.764 557.25 156.764ZM608.52 201.154V76.7543H621.8V91.1743H623.42C624.45 89.6043 625.87 87.6143 627.71 85.1843C629.55 82.7043 632.19 80.4842 635.65 78.5443C639.1 76.6042 643.77 75.6243 649.66 75.6243C657.27 75.6243 663.97 77.5443 669.75 81.3743C675.52 85.1543 680.03 90.5543 683.28 97.5743C686.57 104.544 688.22 112.774 688.22 122.274C688.22 131.774 686.6 140.144 683.36 147.224C680.12 154.244 675.61 159.674 669.83 163.504C664.06 167.334 657.39 169.254 649.83 169.254C644.05 169.254 639.41 168.284 635.9 166.334C632.39 164.334 629.69 162.094 627.8 159.614C625.91 157.074 624.45 154.994 623.43 153.374H622.29V201.154H608.52ZM648.04 156.764C653.82 156.764 658.65 155.224 662.54 152.144C666.43 149.014 669.34 144.824 671.29 139.594C673.29 134.354 674.29 128.524 674.29 122.104C674.29 115.684 673.32 109.984 671.37 104.854C669.43 99.7243 666.51 95.6443 662.62 92.6243C658.79 89.6043 653.93 88.0843 648.04 88.0843C642.15 88.0843 637.62 89.5143 633.79 92.3743C629.96 95.1843 627.04 99.1543 625.04 104.284C623.1 109.364 622.12 115.294 622.12 122.104C622.12 128.914 623.12 134.924 625.12 140.164C627.12 145.344 630.04 149.424 633.87 152.394C637.76 155.314 642.48 156.764 648.04 156.764ZM737.54 76.7543V88.5743H690.72V76.7543H737.54ZM704.33 55.2043H718.1V141.374C718.1 146.074 719.07 149.524 721.02 151.744C722.96 153.904 726.04 154.984 730.25 154.984C731.17 154.984 732.12 154.934 733.09 154.824C734.12 154.714 735.22 154.554 736.41 154.334L739.33 166.804C738.03 167.294 736.44 167.664 734.55 167.934C732.71 168.254 730.85 168.424 728.96 168.424C721.67 168.424 715.73 166.264 711.14 161.944C706.61 157.624 704.34 152.004 704.34 145.094V55.1943L704.33 55.2043ZM783.14 169.244C774.99 169.244 767.83 167.304 761.68 163.414C755.52 159.524 750.72 154.074 747.26 147.054C743.86 140.034 742.16 131.884 742.16 122.594C742.16 113.304 743.86 104.914 747.26 97.8943C750.72 90.8243 755.52 85.3443 761.68 81.4543C767.84 77.5643 774.99 75.6243 783.14 75.6243C791.29 75.6243 798.53 77.5643 804.69 81.4543C810.85 85.3443 815.65 90.8243 819.11 97.8943C822.56 104.914 824.29 113.144 824.29 122.594C824.29 132.044 822.56 140.034 819.11 147.054C815.65 154.074 810.85 159.524 804.69 163.414C798.53 167.304 791.35 169.244 783.14 169.244ZM783.14 156.764C789.4 156.764 794.53 155.174 798.53 151.984C802.52 148.794 805.5 144.614 807.44 139.434C809.38 134.194 810.35 128.584 810.35 122.584C810.35 116.584 809.38 110.814 807.44 105.574C805.5 100.334 802.52 96.1243 798.53 92.9443C794.53 89.7043 789.4 88.0843 783.14 88.0843C776.88 88.0843 771.91 89.7043 767.92 92.9443C763.92 96.1343 760.95 100.344 759.01 105.574C757.07 110.814 756.09 116.484 756.09 122.584C756.09 128.684 757.06 134.194 759.01 139.434C760.95 144.614 763.92 148.804 767.92 151.984C771.91 155.174 776.99 156.764 783.14 156.764Z" fill="#1A1A1A"/>
<path d="M23.81 165.244C31.88 167.384 40.55 166.314 47.76 162.144L72.17 147.954L72.12 58.3542C72.12 48.2342 72.22 42.1342 72.12 32.0642C72.12 20.9242 76.86 13.7542 80.24 10.4042C67.03 18.0842 48.17 29.0142 35.01 36.6942L14.59 48.5442C10.15 51.4942 6.46999 55.5142 3.94999 60.1842C1.47999 64.7642 0.119995 69.9942 0.119995 75.5442V134.124C0.119995 140.024 1.67999 145.564 4.45999 150.294C8.69999 157.714 15.65 163.104 23.82 165.244H23.81ZM167.97 117.594L148.91 106.504L71.86 151.354L48.11 165.184C40.45 169.654 30.46 169.714 26.07 168.544L90.36 205.964C95.25 208.764 100.65 210.184 106.29 210.184C111.93 210.184 117.43 208.714 122.38 205.914C139.02 196.404 155.61 186.644 172.2 176.984C177.09 174.084 181.18 169.964 184 165.034C186.72 160.304 188.29 154.814 188.29 149.064C188.29 142.964 187.03 137.424 184 132.084C179.76 124.554 175.13 121.714 167.96 117.594H167.97ZM174.73 118.054C181.03 121.764 187.03 128.584 188.85 135.494V61.3042C188.85 55.2542 187.24 49.6042 184.41 44.7242C181.49 39.6942 177.3 35.4742 172.26 32.5742C156.07 23.1642 139.84 13.6542 123.55 4.30421C116.39 0.184206 107.87 -1.0358 99.85 0.894202C95.61 1.9142 92.84 3.48423 89.21 5.57423C78.87 12.5942 74.94 22.5542 74.94 34.7642V59.9842L122.19 87.4442L151.99 104.784C160.66 109.814 166.16 113.024 174.73 118.054Z" fill="#1A1A1A"/>
<rect x="865" y="47" width="4" height="154" fill="#B3B3B3"/>
<path d="M1270.76 168.597L1247.61 129.527H1230.35V168.597H1220.99V75.0703H1249.08C1259.52 75.0703 1267.42 77.5679 1272.77 82.5632C1278.21 87.5584 1280.93 94.1146 1280.93 102.232C1280.93 109.011 1278.97 114.809 1275.04 119.626C1271.21 124.354 1265.5 127.431 1257.92 128.858L1282 168.597H1270.76ZM1230.35 121.901H1249.22C1256.53 121.901 1262.02 120.117 1265.68 116.549C1269.42 112.981 1271.3 108.208 1271.3 102.232C1271.3 96.077 1269.51 91.3494 1265.94 88.049C1262.38 84.6594 1256.76 82.9646 1249.08 82.9646H1230.35V121.901Z" fill="#808080"/>
<path d="M1158.23 75.0703C1168.57 75.0703 1177.45 76.9435 1184.85 80.6899C1192.26 84.4364 1197.92 89.833 1201.85 96.8798C1205.77 103.927 1207.73 112.312 1207.73 122.034C1207.73 131.668 1205.77 140.008 1201.85 147.055C1197.92 154.013 1192.26 159.365 1184.85 163.111C1177.45 166.768 1168.57 168.597 1158.23 168.597H1130.53V75.0703H1158.23ZM1158.23 160.837C1171.25 160.837 1181.15 157.447 1187.93 150.668C1194.8 143.799 1198.23 134.255 1198.23 122.034C1198.23 109.725 1194.8 100.136 1187.93 93.2672C1181.15 86.3096 1171.25 82.8308 1158.23 82.8308H1139.9V160.837H1158.23Z" fill="#808080"/>
<path d="M1086.34 169.534C1080.19 169.534 1074.74 168.463 1070.02 166.322C1065.38 164.182 1061.72 161.193 1059.05 157.358C1056.37 153.522 1054.94 149.241 1054.76 144.513H1064.66C1065.11 149.062 1067.12 153.076 1070.69 156.555C1074.25 159.945 1079.47 161.639 1086.34 161.639C1092.67 161.639 1097.67 160.034 1101.33 156.823C1105.07 153.522 1106.95 149.374 1106.95 144.379C1106.95 140.365 1105.92 137.154 1103.87 134.746C1101.82 132.248 1099.27 130.419 1096.24 129.26C1093.21 128.011 1089.02 126.673 1083.66 125.246C1077.42 123.551 1072.47 121.901 1068.81 120.295C1065.16 118.689 1062.03 116.192 1059.45 112.802C1056.86 109.413 1055.57 104.819 1055.57 99.0207C1055.57 94.2039 1056.82 89.9223 1059.31 86.1759C1061.81 82.3402 1065.33 79.352 1069.88 77.2112C1074.43 75.0704 1079.65 74 1085.54 74C1094.19 74 1101.15 76.1408 1106.41 80.4224C1111.76 84.6149 1114.84 90.0561 1115.64 96.7461H1105.47C1104.85 92.9105 1102.75 89.5209 1099.19 86.5773C1095.62 83.5444 1090.8 82.028 1084.74 82.028C1079.12 82.028 1074.43 83.5444 1070.69 86.5773C1066.94 89.5209 1065.07 93.5795 1065.07 98.7531C1065.07 102.678 1066.09 105.845 1068.14 108.253C1070.2 110.661 1072.74 112.49 1075.77 113.739C1078.89 114.988 1083.08 116.326 1088.35 117.753C1094.41 119.448 1099.32 121.142 1103.07 122.837C1106.81 124.443 1109.98 126.94 1112.57 130.33C1115.15 133.72 1116.45 138.269 1116.45 143.978C1116.45 148.349 1115.29 152.496 1112.97 156.421C1110.65 160.346 1107.21 163.513 1102.66 165.921C1098.12 168.329 1092.67 169.534 1086.34 169.534Z" fill="#808080"/>
<path d="M1008.08 75.0703V168.597H998.711V75.0703H1008.08Z" fill="#808080"/>
<path d="M969.63 146.386H927.081L918.919 168.597H909.018L943.137 76.2749H953.707L987.693 168.597H977.791L969.63 146.386ZM966.82 138.626L948.355 88.0494L929.891 138.626H966.82Z" fill="#808080"/>
</g>
<defs>
<clipPath id="clip0_60_17977">
<rect width="1282" height="211" fill="white"/>
</clipPath>
</defs>
</svg>
